<svg xmlns="http://www.w3.org/2000/svg" height="1200" width="1600" version="1.1" xmlns:xlink="http://www.w3.org/1999/xlink" xmlns:svgjs="http://svgjs.com/svgjs"><rect fill="#f3ebe9" width="1600" height="1200"></rect><g><path d="M1014.55 371.31C928.43 305.16 815.99 262.2 716.95 281.1 618.38 300 533.21 380.76 481.54 476.56 429.38 572.35 410.72 682.75 456.18 761.37 502.11 839.55 613.12 885.51 728.91 908.71 844.7 931.91 965.75 932.77 1048.53 880.36 1131.3 827.52 1175.32 721.41 1168.14 623.9 1160.49 526.39 1100.68 437.47 1014.55 371.31Z" fill="#efdcd7" opacity="1" stroke-width="4" stroke="none"></path></g><g><path d="M386.18 726.47L366.76 696.79 396.91 712.7 407.28 659.37 418.42 716.28 466.15 692.92 431.35 733.86 474.73 776.28 421.64 756.97 417.58 816.26 398.99 762.46 352.04 789.63 384.87 744.52 337.38 729.39 386.18 726.47Z" fill="#fffefc" opacity="1" stroke-width="4" stroke="none"></path></g><g><path d="M1189.08 572.89L1173.14 530.87 1204.91 558.77 1210.65 529.99 1220.26 557.3 1246.64 532.88 1231.74 567.4 1278.56 567.89 1231.69 584.02 1267.73 616.78 1221.63 604.13 1214.03 652.23 1201.73 604.77 1164.8 635.27 1189.22 589.32 1144.01 577.7 1189.08 572.89Z" fill="#fffefc" opacity="1" stroke-width="4" stroke="none"></path></g><g><path d="M512.52 296.11L492.67 243.77 532.25 278.52 539.4 242.67 551.37 276.69 584.23 246.27 565.66 289.27 623.99 289.88 565.6 309.98 610.49 350.78 553.08 335.02 543.61 394.94 528.28 335.81 482.29 373.8 512.71 316.57 456.39 302.1 512.52 296.11Z" fill="#fffefc" opacity="1" stroke-width="4" stroke="none"></path></g><g><path d="M814.16 782.48V524.17C814.16 486.69 823.71 449.58 841.35 417.25L866.7 370.59C880.3 346.34 887.28 318.41 887.28 290.12V222.14H977.67V290.12C977.67 318.41 984.65 346.34 998.24 370.59L1023.6 417.25C1041.6 450.32 1050.79 487.43 1050.42 524.17V782.48H814.16Z" fill="#61ccff" opacity="1" stroke-width="4" stroke="none"></path><path d="M813.06 782.48V545.12C818.57 552.47 822.61 559.08 826.28 566.06 841.35 593.25 846.12 594.72 853.47 594.72 860.82 594.72 865.6 593.25 880.66 566.06L881.03 565.33C891.32 546.59 904.55 523.07 932.1 523.07 959.66 523.07 972.52 546.59 983.18 565.33L983.55 566.06C998.61 593.25 1003.39 594.72 1010.74 594.72 1018.08 594.72 1022.86 593.25 1037.93 566.06 1041.6 559.08 1046.01 552.1 1050.79 545.12L1051.15 782.48H813.06Z" fill="#9e76dd" opacity="1" stroke-width="4" stroke="none"></path><path d="M1001.92 782.11V523.81C1002.28 487.06 993.1 449.95 975.09 416.88L949.74 370.22C936.15 345.97 929.17 318.04 929.17 289.75V221.78H977.67V289.75C977.67 318.04 984.65 345.97 998.24 370.22L1023.6 416.88C1041.6 449.95 1050.79 487.06 1050.42 523.81V782.11H1001.92Z" fill="#000000" opacity="0.2" stroke-width="4" stroke="none"></path><path d="M887.28 271.38L886.91 221.41H913.37 977.67V271.38H887.28Z" fill="#9e76dd" opacity="1" stroke-width="4" stroke="none"></path><path d="M886.84 271.42H977.96" stroke="#232323" stroke-width="4" stroke-linecap="round" stroke-linejoin="round" opacity="1" fill="none"></path></g><g><path d="M753.78 489.82C762.1 489.82 768.76 496.48 768.76 504.8V560.09C768.76 568.41 762.1 575.07 753.78 575.07 745.45 575.07 738.8 568.41 738.8 560.09V504.8C738.8 496.48 745.57 489.82 753.78 489.82Z" fill="#faa378" opacity="1" stroke-width="4" stroke="none"></path><path d="M762.22 567.34C754.61 566.39 749.02 559.61 749.02 552V497.19C749.02 494.93 749.5 492.67 750.45 490.89 750.57 490.65 750.33 490.3 750.09 490.41 743.67 492.08 738.8 497.9 738.8 505.04V559.97C738.8 568.17 745.34 575.19 753.54 575.31 759.48 575.42 764.48 572.21 766.97 567.34 765.55 567.34 764.12 567.46 762.22 567.34Z" fill="#f77636" opacity="0.2" stroke-width="4" stroke="none"></path><path d="M583.28 545.11C589.11 539.28 598.62 539.28 604.45 545.11L639.52 580.18C645.35 586.01 645.35 595.52 639.52 601.34 633.69 607.17 624.18 607.17 618.36 601.34L583.28 566.27C577.46 560.44 577.46 550.93 583.28 545.11Z" fill="#faa378" opacity="1" stroke-width="4" stroke="none"></path><path d="M642.37 586.01C636.55 591.83 627.04 591.83 621.21 586.01L586.14 550.93C584.71 549.5 583.76 547.96 583.04 546.18 582.93 545.94 582.69 545.94 582.45 546.06 577.46 551.88 577.81 560.8 583.28 566.27L618 600.99C623.47 606.46 632.39 607.17 638.45 602.29 643.56 598.01 645.11 591.12 642.85 585.41 642.73 585.53 642.61 585.77 642.37 586.01Z" fill="#f77636" opacity="0.2" stroke-width="4" stroke="none"></path><path d="M708.84 551.76C609.44 551.76 527.52 641.77 516.7 757.57 515.51 770.65 525.02 782.18 538.1 783.37 538.82 783.49 539.53 783.49 540.24 783.49H559.62C574.25 783.49 586.49 772.31 587.8 757.81 588.75 747.82 590.18 737.95 592.2 728.2 598.62 696.34 611.1 665.9 629.06 638.79V638.68C629.89 637.49 630.6 636.3 631.43 635.23L631.79 634.75C632.5 633.68 633.22 632.73 633.93 631.66 634.05 631.42 634.29 631.19 634.41 630.95L636.43 628.21 637.14 627.26C637.74 626.43 638.45 625.6 639.04 624.77L639.88 623.7C640.47 622.98 641.07 622.15 641.66 621.44L642.61 620.25 644.39 618.23 645.46 616.92 647.13 615.02 648.32 613.59C648.79 612.99 649.39 612.4 649.86 611.92L651.17 610.5 652.72 608.95 654.14 607.41C654.62 606.93 655.09 606.46 655.57 605.98L657.23 604.43 658.54 603.13 660.33 601.46 661.52 600.27 663.42 598.49 664.49 597.54C665.2 596.94 665.8 596.35 666.51 595.75L667.46 594.92C668.17 594.33 669.01 593.61 669.72 593.02L670.43 592.43C671.26 591.71 672.1 591 672.93 590.4L673.4 590.05 676.26 587.79C696.35 572.33 719.54 561.39 744.15 555.69 732.61 553.07 720.84 551.76 708.84 551.76Z" fill="#f77636" opacity="1" stroke-width="4" stroke="none"></path><path d="M522.77 616.56C526.93 609.43 536.08 606.93 543.22 611.09L601.95 644.98C609.08 649.14 611.58 658.29 607.42 665.43 603.26 672.56 594.1 675.06 586.97 670.9L528.23 637.01C521.1 632.85 518.72 623.7 522.77 616.56Z" fill="#faa378" opacity="1" stroke-width="4" stroke="none"></path><path d="M607.42 652.94C603.26 660.08 594.1 662.57 586.97 658.41L528.23 624.53C525.74 622.98 523.72 620.84 522.53 618.46 522.41 618.23 522.05 618.23 521.93 618.46 519.2 625.24 521.7 633.21 528.23 637.01L586.97 670.9C594.1 675.06 603.26 672.56 607.42 665.43 609.91 661.03 610.03 655.92 608.01 651.75 607.89 652.11 607.66 652.47 607.42 652.94Z" fill="#f77636" opacity="0.2" stroke-width="4" stroke="none"></path><path d="M595.41 777.07C576.98 783.97 559.62 774.81 556.17 756.38 537.75 757.57 525.02 728.68 546.9 716.08 546.9 716.08 541.07 693.01 565.33 690.75 565.33 690.75 552.73 651.87 594.1 633.09 629.89 616.92 674.83 641.17 674.83 641.17L595.41 777.07Z" fill="#242424" opacity="0.2" stroke-width="4" stroke="none"></path><path d="M541.19 730.82H541.07C530.61 728.56 501.96 719.17 501.96 682.43 501.96 647.24 542.03 637.25 545.59 636.42 545.71 636.42 545.83 636.3 545.83 636.06 545.95 633.56 547.61 613.47 574.25 613.23 574.48 613.23 574.6 613.11 574.6 612.88 574.25 609.19 572.34 578.52 608.84 574 609.08 574 609.2 573.76 609.08 573.64 608.25 569.84 601.71 535.71 634.53 520.97 667.94 505.87 692.31 530.24 695.28 533.34 695.4 533.45 695.64 533.45 695.76 533.22 697.3 530.48 707.77 513.96 727.74 513.96 742.96 513.96 753.78 526.56 756.04 529.53 756.27 529.77 756.63 529.65 756.63 529.41 757.46 525.01 762.58 503.14 785.28 498.97 799.67 496.12 814.53 501.83 823.21 513.72 823.33 513.84 823.45 513.84 823.57 513.84 826.07 512.89 849.01 505.16 857.81 529.89 857.81 530.01 858.05 530.13 858.17 530.13 861.02 529.77 886.82 526.8 897.16 546.29 906.56 564.01 897.05 581.84 895.26 585.05 895.14 585.29 895.26 585.53 895.5 585.53 898.71 585.53 913.81 586.24 922.61 598.25 934.85 614.78 920.35 634.75 919.28 636.18 919.28 636.3 919.16 636.3 919.04 636.3L541.19 730.82Z" fill="#ffc930" opacity="1" stroke-width="4" stroke="none"></path><path d="M569.43 699.38C574.79 691.67 570.23 679.22 559.24 671.56 548.24 663.92 534.98 663.95 529.61 671.67 524.25 679.37 528.82 691.82 539.81 699.48 550.8 707.12 564.07 707.09 569.43 699.38Z" fill="#a6862b" opacity="0.2" stroke-width="4" stroke="none"></path><path d="M592.68 766.25C574.37 773.03 557.13 763.99 553.56 745.8 553.56 745.68 553.44 745.56 553.2 745.56 535.01 746.39 522.53 717.98 544.05 705.38 544.17 705.26 544.29 705.14 544.17 705.02 543.69 702.64 539.89 682.31 562.24 679.93 562.48 679.93 562.59 679.69 562.48 679.46 561.29 675.41 552.37 639.86 591.37 622.15 625.37 606.81 667.82 627.98 671.74 630.12 671.86 630.23 671.98 630.47 671.86 630.59L592.68 766.25C592.79 766.25 592.79 766.25 592.68 766.25Z" fill="#ff4e33" opacity="1" stroke-width="4" stroke="none"></path><path d="M602.45 736.92C615.56 734.2 624.65 724.52 622.73 715.33 620.82 706.14 608.63 700.91 595.52 703.63 582.4 706.36 573.32 716.03 575.25 725.23 577.16 734.42 589.33 739.65 602.45 736.92Z" fill="#642c23" opacity="0.2" stroke-width="4" stroke="none"></path><path d="M599 725.62C612.11 722.9 621.2 713.22 619.28 704.03 617.37 694.84 605.18 689.61 592.07 692.33 578.95 695.07 569.87 704.73 571.8 713.94 573.71 723.13 585.89 728.36 599 725.62Z" fill="#ffa0dc" opacity="1" stroke-width="4" stroke="none"></path><path d="M806.8 585.05C821.71 585.05 833.79 572.97 833.79 558.07 833.79 543.16 821.71 531.08 806.8 531.08 791.89 531.08 779.82 543.16 779.82 558.07 779.82 572.97 791.89 585.05 806.8 585.05Z" fill="#ac704e" opacity="1" stroke-width="4" stroke="none"></path><path d="M806.8 571.38C814.15 571.38 820.12 565.42 820.12 558.07 820.12 550.71 814.15 544.75 806.8 544.75 799.44 544.75 793.49 550.71 793.49 558.07 793.49 565.42 799.44 571.38 806.8 571.38Z" fill="#cea58d" opacity="1" stroke-width="4" stroke="none"></path><path d="M780.47 578.93C789.75 577.53 795.65 565.65 793.64 552.41 791.63 539.16 782.49 529.57 773.2 530.97 763.92 532.38 758.02 544.26 760.03 557.51 762.03 570.74 771.18 580.35 780.47 578.93Z" fill="#a6862b" opacity="0.2" stroke-width="4" stroke="none"></path><path d="M789.62 572.39C798.91 570.99 804.81 559.11 802.8 545.87 800.79 532.62 791.65 523.03 782.36 524.43 773.07 525.84 767.18 537.72 769.17 550.97 771.18 564.2 780.34 573.81 789.62 572.39Z" fill="#ffa0dc" opacity="1" stroke-width="4" stroke="none"></path><path d="M609.08 574.12C611.22 582.91 615.74 591.83 615.74 591.83" stroke="#343027" stroke-width="4" stroke-linecap="round" stroke-linejoin="round" opacity="1" fill="none"></path><path d="M894.91 585.77C880.64 586.96 869.34 598.13 869.34 598.13" stroke="#343027" stroke-width="4" stroke-linecap="round" stroke-linejoin="round" opacity="1" fill="none"></path><path d="M695.52 533.81C693.5 537.73 693.02 545.82 693.02 545.82" stroke="#343027" stroke-width="4" stroke-linecap="round" stroke-linejoin="round" opacity="1" fill="none"></path><path d="M693.38 639.86C720.43 639.86 742.36 617.93 742.36 590.88 742.36 563.83 720.43 541.9 693.38 541.9 666.33 541.9 644.39 563.83 644.39 590.88 644.39 617.93 666.33 639.86 693.38 639.86Z" fill="#a6862b" opacity="0.2" stroke-width="4" stroke="none"></path><path d="M706.34 634.75C733.39 634.75 755.32 612.82 755.32 585.77 755.32 558.72 733.39 536.78 706.34 536.78 679.28 536.78 657.35 558.72 657.35 585.77 657.35 612.82 679.28 634.75 706.34 634.75Z" fill="#ac704e" opacity="1" stroke-width="4" stroke="none"></path><path d="M706.34 617.87C724.07 617.87 738.44 603.5 738.44 585.77 738.44 568.04 724.07 553.67 706.34 553.67 688.61 553.67 674.24 568.04 674.24 585.77 674.24 603.5 688.61 617.87 706.34 617.87Z" fill="#cea58d" opacity="1" stroke-width="4" stroke="none"></path><path d="M658.54 556.4C626.68 556.4 600.88 582.2 600.88 614.06 600.88 645.93 626.68 671.73 658.54 671.73 690.41 671.73 716.21 645.93 716.21 614.06 716.09 582.2 690.29 556.4 658.54 556.4ZM658.54 655.56C635.6 655.56 617.05 637.01 617.05 614.06 617.05 591.12 635.6 572.57 658.54 572.57 681.49 572.57 700.04 591.12 700.04 614.06 700.04 637.01 681.37 655.56 658.54 655.56Z" fill="#fffefe" opacity="1" stroke-width="4" stroke="none"></path><path d="M970.76 757.69C960.06 641.89 878.14 551.88 778.75 551.88 766.74 551.88 754.85 553.19 743.2 555.81 718.47 561.51 695.28 572.45 675.31 587.91L672.45 590.05 671.98 590.4C671.15 591.12 670.31 591.71 669.48 592.43L668.77 593.02C668.05 593.61 667.22 594.33 666.51 594.92L665.56 595.75C664.84 596.35 664.13 596.94 663.54 597.54L662.47 598.49 660.56 600.27 659.38 601.46 657.59 603.13 656.28 604.43 654.62 605.98C654.14 606.46 653.67 606.93 653.19 607.41L651.77 608.95 650.22 610.5 648.91 611.92C648.44 612.52 647.84 613.11 647.37 613.59L646.18 615.02 644.51 616.92 643.44 618.23 641.66 620.25 640.71 621.44C640.11 622.15 639.52 622.98 638.93 623.7L638.09 624.77C637.5 625.6 636.79 626.43 636.19 627.26L635.48 628.21 633.46 630.95C633.34 631.19 633.1 631.42 632.98 631.66 632.27 632.61 631.55 633.68 630.84 634.75L630.48 635.23C629.65 636.42 628.94 637.49 628.11 638.68V638.79C610.15 665.9 597.67 696.34 591.25 728.2 589.23 737.95 587.8 747.94 586.85 757.81 585.54 772.31 573.3 783.49 558.67 783.49H947.46C960.54 783.37 971.12 772.67 971 759.59 970.88 759 970.88 758.4 970.76 757.69Z" fill="#faa378" opacity="1" stroke-width="4" stroke="none"></path><path d="M799.67 624.41C806.36 624.41 811.8 618.98 811.8 612.28 811.8 605.59 806.36 600.15 799.67 600.15 792.98 600.15 787.54 605.59 787.54 612.28 787.54 618.98 792.98 624.41 799.67 624.41Z" fill="#f77636" opacity="1" stroke-width="4" stroke="none"></path><path d="M852.7 710.84C859.39 710.84 864.82 705.41 864.82 698.72 864.82 692.02 859.39 686.59 852.7 686.59 846 686.59 840.57 692.02 840.57 698.72 840.57 705.41 846 710.84 852.7 710.84Z" fill="#f77636" opacity="1" stroke-width="4" stroke="none"></path><path d="M713.23 672.92C719.93 672.92 725.36 667.48 725.36 660.79 725.36 654.1 719.93 648.66 713.23 648.66 706.54 648.66 701.11 654.1 701.11 660.79 701.11 667.48 706.54 672.92 713.23 672.92Z" fill="#f77636" opacity="1" stroke-width="4" stroke="none"></path><path d="M711.21 742.59C715.81 742.59 719.54 738.87 719.54 734.27 719.54 729.67 715.81 725.94 711.21 725.94 706.61 725.94 702.89 729.67 702.89 734.27 702.89 738.87 706.61 742.59 711.21 742.59Z" fill="#f77636" opacity="1" stroke-width="4" stroke="none"></path><path d="M662.82 720.59C667.42 720.59 671.15 716.87 671.15 712.27 671.15 707.67 667.42 703.95 662.82 703.95 658.22 703.95 654.5 707.67 654.5 712.27 654.5 716.87 658.22 720.59 662.82 720.59Z" fill="#f77636" opacity="1" stroke-width="4" stroke="none"></path><path d="M883.02 750.67C887.62 750.67 891.34 746.95 891.34 742.35 891.34 737.75 887.62 734.03 883.02 734.03 878.41 734.03 874.69 737.75 874.69 742.35 874.69 746.95 878.41 750.67 883.02 750.67Z" fill="#f77636" opacity="1" stroke-width="4" stroke="none"></path><path d="M883.02 682.55C887.62 682.55 891.34 678.83 891.34 674.23 891.34 669.62 887.62 665.9 883.02 665.9 878.41 665.9 874.69 669.62 874.69 674.23 874.69 678.83 878.41 682.55 883.02 682.55Z" fill="#f77636" opacity="1" stroke-width="4" stroke="none"></path><path d="M756.51 530.01C755.8 535.48 755.56 537.38 755.56 542.97" stroke="#343027" stroke-width="4" stroke-linecap="round" stroke-linejoin="round" opacity="1" fill="none"></path><path d="M823.33 514.19C824.88 516.81 826.07 520.14 826.9 523.11" stroke="#343027" stroke-width="4" stroke-linecap="round" stroke-linejoin="round" opacity="1" fill="none"></path><path d="M857.93 530.36C860.19 536.9 861.61 544.63 861.61 551.53" stroke="#343027" stroke-width="4" stroke-linecap="round" stroke-linejoin="round" opacity="1" fill="none"></path><path d="M574.48 613.35C578.53 613.35 583.16 613.23 587.09 614.06" stroke="#343027" stroke-width="4" stroke-linecap="round" stroke-linejoin="round" opacity="1" fill="none"></path><path d="M545.71 636.42C545.71 639.63 545.95 643.19 546.66 646.29" stroke="#343027" stroke-width="4" stroke-linecap="round" stroke-linejoin="round" opacity="1" fill="none"></path></g></svg>